<?xml version="1.0" standalone="no"?>
<!DOCTYPE svg PUBLIC "-//W3C//DTD SVG 20010904//EN"
 "http://www.w3.org/TR/2001/REC-SVG-20010904/DTD/svg10.dtd">
<svg version="1.0" xmlns="http://www.w3.org/2000/svg"
 width="327.000000pt" height="64.000000pt" viewBox="0 0 327.000000 64.000000"
 preserveAspectRatio="xMidYMid meet">

<g transform="translate(0.000000,64.000000) scale(0.100000,-0.100000)"
fill="#FFFFFF" stroke="none">
<path fill="#FFFF00" d="M760 611 c-133 -41 -214 -148 -214 -286 0 -118 55 -209 159 -262 97
-50 242 -38 325 27 l25 19 -107 108 -108 108 108 108 107 108 -25 19 c-63 49
-194 74 -270 51z"/>
<path d="M30 325 l0 -285 235 0 235 0 0 95 0 95 -55 0 c-42 0 -55 3 -55 15 0
12 13 15 55 15 l55 0 0 65 0 65 -55 0 c-42 0 -55 3 -55 15 0 12 13 15 55 15
l55 0 0 95 0 95 -235 0 -235 0 0 -285z"/>
<path d="M1064 593 c4 -9 37 -68 74 -132 l67 -116 5 -150 5 -150 140 0 140 0
5 145 5 145 73 131 c39 73 72 134 72 138 0 3 -133 6 -296 6 -272 0 -296 -1
-290 -17z"/>
<path d="M1687 603 c-4 -3 -7 -64 -7 -135 l0 -128 51 0 c61 0 61 13 -5 -172
l-46 -128 285 0 285 0 0 135 0 135 -50 0 c-27 0 -50 3 -50 6 0 4 20 65 45 136
25 71 45 136 45 144 0 12 -43 14 -273 14 -151 0 -277 -3 -280 -7z"/>
<path d="M2305 597 c-3 -7 -4 -134 -3 -282 l3 -270 132 -3 132 -3 3 102 c2 69
7 104 15 106 9 3 13 -23 15 -99 l3 -103 133 -3 132 -3 0 286 0 286 -132 -3
-133 -3 -3 -103 c-2 -76 -6 -102 -15 -99 -8 2 -13 37 -15 105 l-3 102 -130 0
c-95 0 -131 -3 -134 -13z"/>
<path d="M2930 325 l0 -285 145 0 145 0 0 285 0 285 -145 0 -145 0 0 -285z"/>
</g>
</svg>
