<?xml version="1.0" standalone="no"?>
<!DOCTYPE svg PUBLIC "-//W3C//DTD SVG 20010904//EN"
 "http://www.w3.org/TR/2001/REC-SVG-20010904/DTD/svg10.dtd">
<svg version="1.0" xmlns="http://www.w3.org/2000/svg"
 width="327.000000pt" height="64.000000pt" viewBox="0 0 327.000000 64.000000"
 preserveAspectRatio="xMidYMid meet">

<g transform="translate(0.000000,64.000000) scale(0.100000,-0.100000)"
fill="#FFFFFF" stroke="none">
<path fill="#FFFF00" d="M760 611 c-133 -41 -214 -148 -214 -286 0 -118 55 -209 159 -262 97
-50 242 -38 325 27 l25 19 -107 108 -108 108 108 108 107 108 -25 19 c-63 49
-194 74 -270 51z"/>
<path d="M30 325 l0 -285 235 0 235 0 0 95 0 95 -55 0 c-42 0 -55 3 -55 15 0
12 13 15 55 15 l55 0 0 65 0 65 -55 0 c-42 0 -55 3 -55 15 0 12 13 15 55 15
l55 0 0 95 0 95 -235 0 -235 0 0 -285z"/>
<path d="M1064 593 c4 -9 37 -68 74 -132 l67 -116 5 -150 5 -150 140 0 140 0
5 145 5 145 73 131 c39 73 72 134 72 138 0 3 -133 6 -296 6 -272 0 -296 -1
-290 -17z"/>
</g>
</svg>
